<svg width="423" height="296" xmlns="http://www.w3.org/2000/svg" xmlns:xlink="http://www.w3.org/1999/xlink"><defs><filter x="-11.4%" y="-7.7%" width="123.7%" height="118.4%" filterUnits="objectBoundingBox" id="a"><feOffset dx="1" dy="4" in="SourceAlpha" result="shadowOffsetOuter1"/><feGaussianBlur stdDeviation="7.5" in="shadowOffsetOuter1" result="shadowBlurOuter1"/><feColorMatrix values="0 0 0 0 0 0 0 0 0 0 0 0 0 0 0 0 0 0 0.15 0" in="shadowBlurOuter1"/></filter><rect id="b" x="200" y="0" width="207" height="266" rx="8"/></defs><g transform="translate(0 11)" fill="none" fill-rule="evenodd"><g transform="translate(0 40)"><path d="M107.882 196C156.292 196 176 134.171 176 86.435 176 38.698 136.756 0 88.347 0 39.937 0 0 70.774 0 118.51 0 166.247 59.473 196 107.882 196z" fill="#FFF7E5"/><g transform="translate(72 14)" fill-rule="nonzero"><path d="M6 93.397c.094.49.191.983.28 1.47A129.286 129.286 0 018.073 109L25.75 80.56l.249.35a51.266 51.266 0 00-1.786-12.977A106.595 106.595 0 0022.724 63L6 93.397z" fill="#6C63FF"/><path d="M15.047 191.74c.055.811.148 1.618.279 2.419 0 0 6.107 4.474 6.596-.527.317-3.258-.4-4.729-.943-5.358l-.009-.01a2.112 2.112 0 01-.514-1.372V181l-5.375 1.842.245 5c-.362 1.04-.367 2.593-.279 3.898z" fill="#FFB9B9"/><path d="M15 191.234c.055.907.149 1.81.28 2.706 0 0 6.15 5.006 6.641-.59.32-3.645-.403-5.29-.95-5.995-.434-.393-1.016-.466-1.51-.188-.983-.524-2.065.35-2.96 1.481A10.66 10.66 0 0015 191.234z" fill="#000" opacity=".05"/><path d="M20.347 189.145s2.785-1.527 3.291 5.342c.506 6.868.76 6.105.76 6.105s2.531 6.105-2.785 5.342c-5.317-.763-7.849-1.272-7.596-4.325.153-1.84.581-4.511.898-6.343a9.345 9.345 0 012.382-4.843c.924-.977 2.037-1.73 3.05-1.278z" fill="#2F2E41"/><path d="M51.455 198.436l2.869 1.394s8.961 1.386 6.119-3.755a20.952 20.952 0 01-1.87-4.863 32.62 32.62 0 01-.991-7.212L50 185.065c2.472 3.317 2.16 8.697 1.777 11.515-.155 1.136-.322 1.856-.322 1.856z" fill="#FFB9B9"/><path d="M51 198.399l3.005 1.427s9.39 1.42 6.411-3.845A21.165 21.165 0 0158.458 191c-1.824.346-3.212 2.93-3.212 2.93-1.47 5.029-2.794 3.772-3.91 2.568-.162 1.163-.336 1.9-.336 1.9z" fill="#000" opacity=".05"/><path d="M55.493 193.14s2.282-4.606 4.813-2.661c2.532 1.945 1.276 4.723 9.475 7.444 8.2 2.72 2.781 8.494-2.236 8.053-5.017-.441-15.713-2.52-15.713-2.52s-2.78-8.494-1.49-8.686c1.29-.193 3.071 6.075 5.15-1.63z" fill="#2F2E41"/><path d="M66.357 205.045c3.187.26 6.537-1.855 6.302-4.045 1.522 2.473-2.332 5.275-5.972 4.978-4.908-.4-15.372-2.284-15.372-2.284s-.128-.362-.315-.93c.305.054 10.523 1.887 15.357 2.281zM14.03 201c.292 2.522 2.819 3.052 7.583 3.806 2.424.383 3.214-.806 3.36-2.214.158 1.803-.304 3.819-3.36 3.335-5.317-.84-7.849-1.402-7.596-4.766.004-.052.01-.107.013-.161z" fill="#FFF" opacity=".3"/><path d="M1.884 98.404l-.855 13.162s-.684 13.337 4.616 14.39c5.3 1.053 0-17.023 0-17.023V97l-3.761 1.404z" fill="#FBBEBE"/><path d="M6.563 52l-.724 1.563s.181 10.941 0 11.81c-.18.868-2.534 7.641-2.534 8.336 0 .695-1.81 20.84-2.172 22.057-.362 1.215-1.991 5.036-.543 5.557 1.448.521 4.163-1.563 5.25 0 1.085 1.563 1.99 0 1.99-.52 0-.522.362-10.421 2.535-13.2 2.172-2.779 4.163-9.031 4.525-10.247.362-1.215.905-18.756 1.086-19.104.181-.347-.724-5.036-.724-5.036L6.563 52z" fill="#E6E6E6"/><path d="M15.858 70s-2.031 8.234-3.386 9.81c-1.354 1.577-8.126 13.315-6.095 28.907 2.032 15.592 5.587 35.914 5.587 35.914s.508 7.183-.169 9.11c-.677 1.927 3.048 32.585 3.048 32.585s5.248 4.205 8.126-1.05c0 0-.677-11.388 0-12.44.678-1.05 0-19.971 0-19.971s.508-47.126 3.217-45.2c2.71 1.928 11.005 34.689 11.005 34.689s3.556 12.613 3.386 13.664c-.17 1.052 3.048 14.19 3.048 14.19s3.047 18.22 4.232 18.571c1.186.35 8.466.526 9.143-1.401l-2.032-16.468s-2.031-18.746-3.047-21.374c-1.016-2.627-2.71-39.943-7.619-50.98 0 0-1.862-17.694-3.217-20.322 0 0-.794-3.61.186-6.98 0 0-23.55.148-25.413-1.254z" fill="#2F2E41"/><ellipse fill="#2F2E41" cx="26.5" cy="18.5" rx="14.5" ry="18.5"/><path d="M56 40.92l-2.269 4.779-26.876 7.68s-18.673 5.29-20.593-3.243c-1.92-8.533 7.33-9.387 7.33-9.387s3.49-2.39 7.853-4.778c1.46-.8 1.943-2.096 1.94-3.467a7.019 7.019 0 00-.118-1.215c-.084-.463-.2-.92-.349-1.369a15.523 15.523 0 00-1.473-3.165s11.519-4.438 11.344-2.049a6.65 6.65 0 00.28 2.554c.238.723.559 1.417.957 2.07.196.33.414.67.657 1.032.314.47.671.97 1.073 1.513 2.269 3.072 9.773 3.072 9.773 3.072C51.463 34.264 56 40.92 56 40.92zM83.597 69s12.331 8.397 14.729 8.239c2.397-.159 16.442-.95 13.187 2.06-3.254 3.01-17.983 1.109-17.983 1.109L80 72.486 83.597 69z" fill="#FBBEBE"/><path d="M34 27.085c-2.451 2.56-6.175 3.536-9.606 2.519A14.694 14.694 0 0023 26.607s10.9-4.2 10.736-1.938c-.07.814.02 1.635.264 2.416z" fill="#000" opacity=".1"/><ellipse fill="#FBBEBE" cx="26.5" cy="19" rx="9.5" ry="10"/><path d="M13.529 47.683s43.372-9.968 43.547-8.544C57.251 40.563 59 43.411 59 43.411L48.856 55.159s1.225 5.695-1.224 6.941c-2.448 1.246-2.798 10.68-5.072 10.858-2.273.178-28.856-.178-29.031-1.602-.175-1.424.7-2.314 0-2.67-.7-.356-1.749-.356-.874-2.136.874-1.78.874-9.256.874-9.256l-8.22-3.915s-1.127-3.317.923-3.884c2.05-.566 7.297-1.812 7.297-1.812z" fill="#E6E6E6"/><path d="M56.88 44h1.56s4.68 3.097 5.893 5.85c1.213 2.752 5.546 6.365 6.586 7.397 1.04 1.033 15.253 10.839 15.08 12.215-.174 1.377-4.16 2.753-4.334 4.301-.173 1.549 1.734 2.237.52 2.237-1.213 0-8.666-4.301-11.44-5.85-2.773-1.548-8.492-6.021-9.186-7.225-.693-1.205-5.373-3.27-5.893-4.13-.52-.86-8.666-4.816-8.666-4.816L56.88 44z" fill="#E6E6E6"/><ellipse fill="#2F2E41" cx="27" cy="12" rx="10" ry="6"/></g><ellipse fill="#6C63FF" fill-rule="nonzero" opacity=".1" cx="127" cy="220.5" rx="56" ry="5.5"/></g><g fill-rule="nonzero"><g transform="translate(27.526 103.036)"><ellipse fill="#000" opacity=".1" cx="14.196" cy="14.419" rx="14.196" ry="14.419"/><ellipse fill="#F1C40F" cx="13.629" cy="12.689" rx="11.357" ry="11.535"/></g><path d="M33.857 96.668c-5.345 1.888-11.177-.81-13.47-6.232l-15.12-35.75a16.16 16.16 0 01-.03-12.473c1.66-3.976 4.837-7.03 8.749-8.412 3.931-1.389 8.238-.958 11.85 1.187 3.613 2.145 6.192 5.801 7.097 10.061l8.118 38.19c1.223 5.755-1.883 11.553-7.194 13.43z" fill="#000" opacity=".1"/><path d="M32.613 92.049c-5.021 1.716-10.5-.737-12.653-5.666l-14.205-32.5a14.255 14.255 0 01-.027-11.339c1.56-3.615 4.543-6.392 8.218-7.648a13.53 13.53 0 0111.132 1.08c3.394 1.95 5.817 5.273 6.667 9.147l7.626 34.717c1.149 5.233-1.769 10.503-6.758 12.209z" fill="#F1C40F"/></g><use fill="#000" filter="url(#a)" xlink:href="#b"/><use fill="#FFF" xlink:href="#b"/><path fill="#D8D8D8" d="M234 252h59v2h-59zM264 81h79v3h-79z"/><g transform="translate(226 142)"><path fill="#D8D8D8" d="M22 9h79v3H22zM123 5h35v3h-35z"/><path fill="#969191" d="M22 3h56v3H22z"/><circle fill="#AE2189" cx="7.5" cy="7.5" r="7.5"/></g><g transform="translate(226 164)"><path fill="#D8D8D8" d="M22 9h79v3H22zM123 5h35v3h-35z"/><path fill="#969191" d="M22 3h56v3H22z"/><circle fill="#689F38" cx="7.5" cy="7.5" r="7.5"/></g><path fill="#D8D8D8" d="M311 252h59v2h-59z"/><g transform="translate(273 204)"><path fill="#BAB8B8" d="M12 9h36v4H12z"/><rect stroke="#E8EAED" x=".5" y=".5" width="59" height="21" rx="4"/></g><g transform="translate(273 95)"><path fill="#BAB8B8" d="M12 9h36v4H12z"/><rect stroke="#E8EAED" x=".5" y=".5" width="59" height="21" rx="4"/></g><path fill="#969191" d="M275 70h56v6h-56z"/><path stroke="#E8EAED" stroke-linecap="square" d="M200.5 238.5h207M200.5 191.5h207M200.5 131.5h205"/><g transform="translate(285 25)"><circle fill="#55A11F" cx="19" cy="19" r="19"/><path d="M16.176 25.256c.864 0 1.736-.205 2.616-.616a7.043 7.043 0 002.264-1.656l-2.144-2.288a4.452 4.452 0 01-1.24.952c-.464.24-.899.36-1.304.36-.437 0-.835-.117-1.192-.352a2.344 2.344 0 01-.832-.968 3.155 3.155 0 01-.296-1.384c0-.512.099-.97.296-1.376.197-.405.475-.723.832-.952a2.16 2.16 0 011.192-.344c.437 0 .888.141 1.352.424.464.283.861.653 1.192 1.112l2.144-2.544c-.576-.63-1.296-1.133-2.16-1.512-.864-.379-1.723-.568-2.576-.568-1.163 0-2.205.25-3.128.752a5.552 5.552 0 00-2.168 2.072c-.523.88-.784 1.875-.784 2.984 0 1.12.256 2.13.768 3.032a5.488 5.488 0 002.12 2.112c.901.507 1.917.76 3.048.76zM30.192 25v-3.088H25.52v-8.128h-3.712V25h8.384z" fill="#FFF" fill-rule="nonzero"/></g><ellipse stroke="#FF596E" stroke-width="2" cx="303.5" cy="214.5" rx="49.5" ry="17.5"/></g></svg>