<?xml version="1.0" encoding="UTF-8"?>
<svg width="32px" height="32px" viewBox="0 0 32 32" version="1.1" xmlns="http://www.w3.org/2000/svg" xmlns:xlink="http://www.w3.org/1999/xlink">
    <title>logo-google-ads</title>
    <defs>
        <polygon id="path-1" points="0 0.0390104037 28.4131642 0.0390104037 28.4131642 25.9999408 0 25.9999408"></polygon>
    </defs>
    <g id="logo-google-ads" stroke="none" stroke-width="1" fill="none" fill-rule="evenodd">
        <g id="Google-Adwords-Icon-01" transform="translate(2.000000, 3.000000)">
            <g id="Group-5">
                <mask id="mask-2" fill="white">
                    <use xlink:href="#path-1"></use>
                </mask>
                <g id="Clip-2"></g>
                <path d="M9.66896407,3.30783832 C9.9435988,2.587 10.3211437,1.9232994 10.8819341,1.38547305 C13.1247066,-0.800083832 16.8321976,-0.250814371 18.3540539,2.49545509 C19.4983653,4.57802395 20.7113353,6.61482036 21.8898982,8.67458084 C23.8580359,12.095994 25.8491377,15.5174072 27.7943892,18.9502635 C29.4306766,21.8223293 27.6570719,25.4497964 24.4073054,25.9417725 C22.4162814,26.2392934 20.5510539,25.3239222 19.5211737,23.5387964 C17.7933413,20.5293353 16.053988,17.5198743 14.3261557,14.5218563 C14.2918263,14.4531976 14.2460539,14.395982 14.2002814,14.3388443 C14.0171916,14.190006 13.9370898,13.9725868 13.8226587,13.7780539 C13.0560479,12.4278443 12.2664731,11.089 11.4997844,9.75023353 C11.0077305,8.88055689 10.4927904,8.02232335 10.0008144,7.15264671 C9.55453293,6.37451497 9.34855689,5.5278024 9.37144311,4.63523952 C9.40577246,4.17751497 9.46298802,3.71979042 9.66896407,3.30783832" id="Fill-1" fill="#477EB3" mask="url(#mask-2)"></path>
                <path d="M9.66896407,3.30783832 C9.56597605,3.71979042 9.47435329,4.13174251 9.45154491,4.56658084 C9.41721557,5.5278024 9.65752096,6.42028743 10.1380539,7.25563473 C11.3967964,9.41838323 12.6555389,11.592497 13.9027605,13.7666108 C14.0171916,13.9611437 14.1087365,14.1556766 14.2231677,14.3388443 C13.5366587,15.5288503 12.8500719,16.7074132 12.1520419,17.897497 C11.1908204,19.5567485 10.2296766,21.2273653 9.25701198,22.8865389 C9.21123952,22.8865389 9.19979641,22.8636527 9.18835329,22.8294012 C9.17691018,22.7377784 9.21123952,22.6577545 9.23412575,22.5662096 C9.70329341,20.8497425 9.31422754,19.3278084 8.13558683,18.0233713 C7.41467066,17.2337964 6.4992994,16.7875928 5.44653293,16.6387545 C4.07343713,16.4442216 2.86046707,16.7989581 1.77337126,17.6571916 C1.57883832,17.8059521 1.45304192,18.0233713 1.22417964,18.1378024 C1.17832934,18.1378024 1.15544311,18.1149162 1.144,18.0805868 C1.69326946,17.1308084 2.23109581,16.1811078 2.78036527,15.2312515 C5.04602395,11.294976 7.31168263,7.35862275 9.58886228,3.43379042 C9.6117485,3.38794012 9.64607784,3.35368862 9.66896407,3.30783832" id="Fill-3" fill="#F0B628" mask="url(#mask-2)"></path>
                <path d="M1.18977246,18.1149162 C1.40719162,17.9203832 1.61316766,17.7144072 1.84202994,17.5313174 C4.62262874,15.3343174 8.79928743,16.9248323 9.40577246,20.4034611 C9.55453293,21.2388084 9.47435329,22.0397485 9.22268263,22.8407665 C9.21123952,22.9094251 9.19979641,22.9666407 9.17691018,23.0352994 C9.07392216,23.2183892 8.98237725,23.4129222 8.86794611,23.596012 C7.84950898,25.2781497 6.35053892,26.1134192 4.38232335,25.9875449 C2.12810778,25.8273413 0.354502994,24.1338383 0.0454610778,21.8910659 C-0.103221557,20.8039701 0.114197605,19.7855329 0.674832335,18.8472754 C0.789341317,18.6412994 0.926580838,18.4581317 1.05245509,18.2522335 C1.10967066,18.2064611 1.08678443,18.1149162 1.18977246,18.1149162" id="Fill-4" fill="#309F4E" mask="url(#mask-2)"></path>
            </g>
            <path d="M1.18977246,18.1149162 C1.144,18.1606886 1.144,18.2407904 1.0638982,18.2522335 C1.05245509,18.1721317 1.09822754,18.1263593 1.144,18.0690659 L1.18977246,18.1149162" id="Fill-6" fill="#F0B628"></path>
            <path d="M9.17691018,23.0352994 C9.13113772,22.9551976 9.17691018,22.8980599 9.22268263,22.8407665 C9.23412575,22.8522874 9.25701198,22.8751737 9.26845509,22.8865389 L9.17691018,23.0352994" id="Fill-7" fill="#D8BA2F"></path>
        </g>
    </g>
</svg>