<?xml version="1.0" encoding="UTF-8"?>
<svg width="32px" height="32px" viewBox="0 0 32 32" version="1.1" xmlns="http://www.w3.org/2000/svg" xmlns:xlink="http://www.w3.org/1999/xlink">
    <title>logo-microsoft</title>
    <g id="logo-microsoft" stroke="none" stroke-width="1" fill="none" fill-rule="evenodd">
        <g id="microsoft" transform="translate(6.000000, 6.000000)" fill-rule="nonzero">
            <path d="M11.2,9.6 L20.8,9.6 L20.8,0.64 C20.8,0.28672 20.51328,0 20.16,0 L11.2,0 L11.2,9.6 Z" id="Path" fill="#4CAF50"></path>
            <path d="M9.6,9.6 L9.6,0 L0.64,0 C0.28672,0 0,0.28672 0,0.64 L0,9.6 L9.6,9.6 Z" id="Path" fill="#F44336"></path>
            <path d="M9.6,11.2 L0,11.2 L0,20.16 C0,20.51328 0.28672,20.8 0.64,20.8 L9.6,20.8 L9.6,11.2 Z" id="Path" fill="#2196F3"></path>
            <path d="M11.2,11.2 L11.2,20.8 L20.16,20.8 C20.51328,20.8 20.8,20.51328 20.8,20.16 L20.8,11.2 L11.2,11.2 Z" id="Path" fill="#FFC107"></path>
        </g>
    </g>
</svg>