<?xml version="1.0" encoding="UTF-8"?>
<svg width="23px" height="23px" viewBox="0 0 23 23" version="1.1" xmlns="http://www.w3.org/2000/svg" xmlns:xlink="http://www.w3.org/1999/xlink">
    <title>microsoft-teams</title>
    <g id="Page-1" stroke="none" stroke-width="1" fill="none" fill-rule="evenodd">
        <g id="Nav-Bar" transform="translate(-735.000000, -3115.000000)" fill="#5558AF" fill-rule="nonzero">
            <g id="Submenu-Copy-2" transform="translate(360.000000, 2976.000000)">
                <g id="Submenu-container" transform="translate(27.000000, 124.000000)">
                    <g id="Submenu-item-Copy-3" transform="translate(336.000000, 0.000000)">
                        <g id="Campaign-creator-icon" transform="translate(0.000000, 3.000000)">
                            <g id="microsoft-teams" transform="translate(12.000000, 12.000000)">
                                <path d="M13.4377777,0 L13.4377777,23 L0,20.6477384 L0,2.35226163 L13.4377777,0 Z M18.089279,9.40904651 L18.089279,16.6670631 C18.1028008,17.0314292 18.0129774,17.3928647 17.8294671,17.7064345 C17.6633421,17.975069 17.4383006,18.2016989 17.170762,18.3677639 C16.8983942,18.5348057 16.5989828,18.6530049 16.2870154,18.7165003 C15.9808431,18.7829263 15.6679099,18.8161393 15.3549766,18.818093 C15.1521495,18.8171162 14.9493225,18.8024634 14.748427,18.7731578 C14.5649168,18.7477596 14.4721959,18.7038012 14.2133499,18.6471438 L14.2133499,18.6471438 L14.2133499,9.40904651 L18.089279,9.40904651 Z M22.9986604,10.7160756 L22.9986604,14.8266723 C23.0131481,15.1968996 22.9098029,15.5612657 22.7040782,15.8670206 C22.508012,16.1424931 22.2530294,16.3710767 21.9574814,16.5332342 C21.6445481,16.7051603 21.306503,16.8243364 20.9559019,16.886855 C20.6072324,16.953281 20.2537338,16.9864939 19.8983035,16.9884477 L19.8983035,16.9884477 L18.8648512,16.9884477 L18.8648512,10.7160756 L22.9986604,10.7160756 Z M9.81972874,7.05678488 L3.61804897,7.43873434 L3.61804897,8.88545339 L5.94379961,8.79069866 L5.94379961,15.4987471 L7.49397809,15.5905712 L7.49397809,8.72915693 L9.81972874,8.62463368 L9.81972874,7.05678488 Z M20.123345,5.39027394 C20.6362077,5.17341261 21.2128162,5.17341261 21.7247131,5.39027394 C22.2192249,5.60225101 22.6123231,6.00080697 22.822877,6.50095562 C23.0372942,7.01966447 23.0372942,7.60284561 22.822877,8.12057762 C22.613289,8.62072627 22.2192249,9.01830537 21.7247131,9.23125929 C21.2118503,9.44812062 20.6352419,9.44812062 20.123345,9.23125929 C19.8780208,9.12575918 19.6558768,8.974347 19.4675374,8.78386069 C19.2801638,8.59337439 19.1294922,8.36772138 19.0251811,8.12057762 C18.8107639,7.60186876 18.8107639,7.01868762 19.0251811,6.50095562 C19.2347691,6.00080697 19.6288332,5.60322786 20.123345,5.39027394 Z M15.5124091,3.91913357 C15.7876744,3.91717987 16.0600422,3.97286048 16.3130932,4.082268 C16.8076049,4.29424506 17.2007032,4.69280102 17.411257,5.19294967 C17.6266401,5.71165853 17.6266401,6.29483967 17.4122228,6.81257167 C17.2026348,7.31272032 16.8095366,7.71029943 16.3150249,7.92325334 C16.0619739,8.03266086 15.7896061,8.08834147 15.5153066,8.08638777 C15.2410071,8.08834147 14.9696052,8.03363772 14.7175201,7.92325334 C14.5301465,7.84217456 14.4721959,7.73765131 14.2133499,7.60968358 L14.2133499,7.60968358 L14.2133499,4.39583776 C14.47123,4.26884689 14.5301465,4.16334678 14.7175201,4.082268 C14.9686393,3.97286048 15.2390754,3.91717987 15.5124091,3.91913357 Z" id="Combined-Shape"></path>
                            </g>
                        </g>
                    </g>
                </g>
            </g>
        </g>
    </g>
</svg>